# xmcd
# 
# Track frame offsets:
#     150
#     5513
#     18942
#     33937
#     46930
# 
# Disc length: 802
# 
# Revision: 0
# Processed by: cddbd v1.5.2PL0 Copyright (c) Steve Scherf et al.
# Submitted via: fre:ac v1.0.17
# 
DISCID=2d032005
DTITLE=Various Artist - SE and HØRs soundtrack til EM 2012
DYEAR=2012
DGENRE=Pop
TTITLE0=Danske Fodbold Fans - Det er et yndigt land
TTITLE1=Rosa Skotte and Jørgen Thorup - Når Danmark trykker af
TTITLE2=Det Brune Punktum - All we need is love (feat. Landsholdet)
TTITLE3=Brødrende Olsen - Fællessang i Parken
TTITLE4=Big Fat Snake - Big boys in red and white (feat. Landsholdet)
EXTD=Promotional CD gotten from the Danish Magazine Se og Hør #23 2012
EXTT0=
EXTT1=
EXTT2=
EXTT3=
EXTT4=
PLAYORDER=
